<svg xmlns="http://www.w3.org/2000/svg" xmlns:xlink="http://www.w3.org/1999/xlink" xmlns:lucid="lucid" width="866.49" height="765"><g transform="translate(-273.50978874991654 -140)" lucid:page-tab-id="0_0"><path d="M320 165a5 5 0 0 1 5-5h270a5 5 0 0 1 5 5v318a5 5 0 0 1-5 5H325a5 5 0 0 1-5-5z" fill="#fff"/><path d="M320 200v-35a5 5 0 0 1 5-5h270a5 5 0 0 1 5 5v35" fill="#ced4db"/><path d="M320 165a5 5 0 0 1 5-5h270a5 5 0 0 1 5 5v318a5 5 0 0 1-5 5H325a5 5 0 0 1-5-5zM320 200h280M475.3 200v288" stroke="#282c33" fill="none"/><use xlink:href="#a" transform="matrix(1,0,0,1,330,160) translate(0 23.6)"/><use xlink:href="#b" transform="matrix(1,0,0,1,330,160) translate(59.900000000000006 23.6)"/><use xlink:href="#c" transform="matrix(1,0,0,1,330,160) translate(70.85000000000001 23.6)"/><use xlink:href="#d" transform="matrix(1,0,0,1,325,202.5) translate(0 17.1)"/><use xlink:href="#e" transform="matrix(1,0,0,1,480.3075075145234,202.5) translate(0 17.1)"/><use xlink:href="#f" transform="matrix(1,0,0,1,325,234.5) translate(0 17.1)"/><use xlink:href="#g" transform="matrix(1,0,0,1,480.3075075145234,234.5) translate(0 17.1)"/><use xlink:href="#h" transform="matrix(1,0,0,1,325,266.5) translate(0 17.1)"/><use xlink:href="#g" transform="matrix(1,0,0,1,480.3075075145234,266.5) translate(0 17.1)"/><use xlink:href="#i" transform="matrix(1,0,0,1,325,298.5) translate(0 17.1)"/><use xlink:href="#g" transform="matrix(1,0,0,1,480.3075075145234,298.5) translate(0 17.1)"/><use xlink:href="#j" transform="matrix(1,0,0,1,325,330.5) translate(0 17.1)"/><use xlink:href="#k" transform="matrix(1,0,0,1,480.3075075145234,330.5) translate(0 17.1)"/><use xlink:href="#l" transform="matrix(1,0,0,1,325,362.5) translate(0 17.1)"/><use xlink:href="#k" transform="matrix(1,0,0,1,480.3075075145234,362.5) translate(0 17.1)"/><use xlink:href="#m" transform="matrix(1,0,0,1,325,394.5) translate(0 17.1)"/><use xlink:href="#n" transform="matrix(1,0,0,1,480.3075075145234,394.5) translate(0 17.1)"/><use xlink:href="#o" transform="matrix(1,0,0,1,325,426.5) translate(0 17.1)"/><use xlink:href="#p" transform="matrix(1,0,0,1,480.3075075145234,426.5) translate(0 17.1)"/><use xlink:href="#q" transform="matrix(1,0,0,1,325,458.5) translate(0 17.1)"/><use xlink:href="#r" transform="matrix(1,0,0,1,480.3075075145234,458.5) translate(0 17.1)"/><path d="M840 305a5 5 0 0 1 5-5h270a5 5 0 0 1 5 5v222a5 5 0 0 1-5 5H845a5 5 0 0 1-5-5z" fill="#fff"/><path d="M840 340v-35a5 5 0 0 1 5-5h270a5 5 0 0 1 5 5v35" fill="#ced4db"/><path d="M840 305a5 5 0 0 1 5-5h270a5 5 0 0 1 5 5v222a5 5 0 0 1-5 5H845a5 5 0 0 1-5-5zM840 340h280M995.3 340v192" stroke="#282c33" fill="none"/><use xlink:href="#s" transform="matrix(1,0,0,1,850,300) translate(0 23.6)"/><use xlink:href="#d" transform="matrix(1,0,0,1,845,342.5) translate(0 17.1)"/><use xlink:href="#e" transform="matrix(1,0,0,1,1000.3075075145234,342.5) translate(0 17.1)"/><use xlink:href="#t" transform="matrix(1,0,0,1,845,374.5) translate(0 17.1)"/><use xlink:href="#k" transform="matrix(1,0,0,1,1000.3075075145234,374.5) translate(0 17.1)"/><use xlink:href="#u" transform="matrix(1,0,0,1,845,406.5) translate(0 17.1)"/><use xlink:href="#k" transform="matrix(1,0,0,1,1000.3075075145234,406.5) translate(0 17.1)"/><use xlink:href="#v" transform="matrix(1,0,0,1,845,438.5) translate(0 17.1)"/><use xlink:href="#w" transform="matrix(1,0,0,1,1000.3075075145234,438.5) translate(0 17.1)"/><use xlink:href="#n" transform="matrix(1,0,0,1,845,470.5) translate(0 17.1)"/><use xlink:href="#x" transform="matrix(1,0,0,1,1000.3075075145234,470.5) translate(0 17.1)"/><use xlink:href="#y" transform="matrix(1,0,0,1,845,502.5) translate(0 17.1)"/><use xlink:href="#z" transform="matrix(1,0,0,1,1000.3075075145234,502.5) translate(0 17.1)"/><path d="M620.45 215.65H714a6 6 0 0 1 6 6v288.67a6 6 0 0 0 6 6h94.15" stroke="#3a414a" fill="none"/><path d="M620.45 225.65v-20M600.45 215.65h20" stroke="#3a414a" fill="#fff"/><path d="M839.33 526.32l-20-10 20-10" stroke="#3a414a" fill="#fff" fill-opacity="0"/><path d="M839.33 516.32h-20" stroke="#3a414a" fill="#fff"/><path d="M320 645a5 5 0 0 1 5-5h270a5 5 0 0 1 5 5v235a5 5 0 0 1-5 5H325a5 5 0 0 1-5-5z" fill="#fff"/><path d="M320 693v-48a5 5 0 0 1 5-5h270a5 5 0 0 1 5 5v48" fill="#ced4db"/><path d="M320 645a5 5 0 0 1 5-5h270a5 5 0 0 1 5 5v235a5 5 0 0 1-5 5H325a5 5 0 0 1-5-5zM320 693h280M475.3 693v192" stroke="#282c33" fill="none"/><use xlink:href="#A" transform="matrix(1,0,0,1,330,640) translate(0 19.299999999999997)"/><use xlink:href="#B" transform="matrix(1,0,0,1,330,640) translate(103.80000000000001 19.299999999999997)"/><use xlink:href="#C" transform="matrix(1,0,0,1,330,640) translate(0 40.9)"/><use xlink:href="#d" transform="matrix(1,0,0,1,325,695.5) translate(0 17.1)"/><use xlink:href="#e" transform="matrix(1,0,0,1,480.3075075145234,695.5) translate(0 17.1)"/><use xlink:href="#D" transform="matrix(1,0,0,1,325,727.5) translate(0 17.1)"/><use xlink:href="#g" transform="matrix(1,0,0,1,480.3075075145234,727.5) translate(0 17.1)"/><use xlink:href="#E" transform="matrix(1,0,0,1,325,759.5) translate(0 17.1)"/><use xlink:href="#g" transform="matrix(1,0,0,1,480.3075075145234,759.5) translate(0 17.1)"/><use xlink:href="#F" transform="matrix(1,0,0,1,325,791.5) translate(0 17.1)"/><use xlink:href="#e" transform="matrix(1,0,0,1,480.3075075145234,791.5) translate(0 17.1)"/><use xlink:href="#G" transform="matrix(1,0,0,1,325,823.5) translate(0 17.1)"/><use xlink:href="#e" transform="matrix(1,0,0,1,480.3075075145234,823.5) translate(0 17.1)"/><use xlink:href="#r" transform="matrix(1,0,0,1,325,855.5) translate(0 17.1)"/><use xlink:href="#r" transform="matrix(1,0,0,1,480.3075075145234,855.5) translate(0 17.1)"/><path d="M760 645a5 5 0 0 1 5-5h270a5 5 0 0 1 5 5v235a5 5 0 0 1-5 5H765a5 5 0 0 1-5-5z" fill="#fff"/><path d="M760 693v-48a5 5 0 0 1 5-5h270a5 5 0 0 1 5 5v48" fill="#ced4db"/><path d="M760 645a5 5 0 0 1 5-5h270a5 5 0 0 1 5 5v235a5 5 0 0 1-5 5H765a5 5 0 0 1-5-5zM760 693h280M915.3 693v192" stroke="#282c33" fill="none"/><use xlink:href="#A" transform="matrix(1,0,0,1,770,640) translate(0 19.299999999999997)"/><use xlink:href="#B" transform="matrix(1,0,0,1,770,640) translate(103.80000000000001 19.299999999999997)"/><use xlink:href="#H" transform="matrix(1,0,0,1,770,640) translate(0 40.9)"/><use xlink:href="#d" transform="matrix(1,0,0,1,765,695.5) translate(0 17.1)"/><use xlink:href="#e" transform="matrix(1,0,0,1,920.3075075145234,695.5) translate(0 17.1)"/><use xlink:href="#I" transform="matrix(1,0,0,1,765,727.5) translate(0 17.1)"/><use xlink:href="#g" transform="matrix(1,0,0,1,920.3075075145234,727.5) translate(0 17.1)"/><use xlink:href="#J" transform="matrix(1,0,0,1,765,759.5) translate(0 17.1)"/><use xlink:href="#g" transform="matrix(1,0,0,1,920.3075075145234,759.5) translate(0 17.1)"/><use xlink:href="#K" transform="matrix(1,0,0,1,765,791.5) translate(0 17.1)"/><use xlink:href="#g" transform="matrix(1,0,0,1,920.3075075145234,791.5) translate(0 17.1)"/><use xlink:href="#L" transform="matrix(1,0,0,1,765,823.5) translate(0 17.1)"/><use xlink:href="#e" transform="matrix(1,0,0,1,920.3075075145234,823.5) translate(0 17.1)"/><use xlink:href="#r" transform="matrix(1,0,0,1,765,855.5) translate(0 17.1)"/><use xlink:href="#M" transform="matrix(1,0,0,1,920.3075075145234,855.5) translate(0 17.1)"/><path d="M299.53 773.03H285.5a6 6 0 0 1-6-6v-545.4a6 6 0 0 1 6-6h14.6" stroke="#3a414a" fill="none"/><path d="M299.53 763.03v20M319.53 773.03h-20" stroke="#3a414a" fill="#fff"/><path d="M319.3 225.62l-20-10 20-10" stroke="#3a414a" fill="#fff" fill-opacity="0"/><path d="M319.3 215.62h-20" stroke="#3a414a" fill="#fff"/><path d="M620.5 837.26H674a6 6 0 0 0 6-6V714.82a6 6 0 0 1 6-6h54.1" stroke="#3a414a" fill="none"/><path d="M620.5 847.26v-20M600.5 837.26h20" stroke="#3a414a" fill="#fff"/><path d="M759.3 718.82l-20-10 20-10" stroke="#3a414a" fill="#fff" fill-opacity="0"/><path d="M759.3 708.82h-20" stroke="#3a414a" fill="#fff"/><defs><path fill="#333" d="M248-139C247-14 144 9 11 0l48-248c105-6 190 8 189 109zm-34 0c1-70-52-87-126-82L50-27c98 7 163-21 164-112" id="N"/><path fill="#333" d="M111-194c62-3 86 47 72 106H45c-7 38 6 69 45 68 27-1 43-14 53-32l24 11C152-15 129 4 87 4 38 3 12-23 12-71c0-70 32-119 99-123zm44 81c14-66-71-72-95-28-4 8-8 17-11 28h106" id="O"/><path fill="#333" d="M89 0H52L20-190h33L74-25l89-165h34" id="P"/><path fill="#333" d="M50-231l6-30h32l-6 30H50zM6 0l37-190h31L37 0H6" id="Q"/><path fill="#333" d="M55-144c13 50 104 24 104 88C159 21 15 23 1-39l26-10c6 40 102 42 102-4-13-50-104-23-104-87 0-71 143-71 148-8l-29 4c-5-35-85-37-89 0" id="R"/><g id="a"><use transform="matrix(0.05,0,0,0.05,0,0)" xlink:href="#N"/><use transform="matrix(0.05,0,0,0.05,12.950000000000001,0)" xlink:href="#O"/><use transform="matrix(0.05,0,0,0.05,22.950000000000003,0)" xlink:href="#P"/><use transform="matrix(0.05,0,0,0.05,31.950000000000003,0)" xlink:href="#Q"/><use transform="matrix(0.05,0,0,0.05,35.900000000000006,0)" xlink:href="#R"/><use transform="matrix(0.05,0,0,0.05,44.900000000000006,0)" xlink:href="#O"/></g><path fill="#333" d="M18-82l6-28h88l-6 28H18" id="S"/><use transform="matrix(0.05,0,0,0.05,0,0)" xlink:href="#S" id="b"/><path fill="#333" d="M67 3c-93-2-31-127-26-193h32L48-50c-3 39 53 32 70 12 30-34 30-101 43-152h32L157 0h-30c1-10 6-24 4-33-14 20-29 37-64 36" id="T"/><path fill="#333" d="M66-151c12-25 30-51 66-40l-6 26C45-176 58-65 38 0H6l36-190h30" id="U"/><g id="c"><use transform="matrix(0.05,0,0,0.05,0,0)" xlink:href="#T"/><use transform="matrix(0.05,0,0,0.05,10,0)" xlink:href="#R"/><use transform="matrix(0.05,0,0,0.05,19,0)" xlink:href="#O"/><use transform="matrix(0.05,0,0,0.05,29,0)" xlink:href="#U"/><use transform="matrix(0.05,0,0,0.05,34.95,0)" xlink:href="#R"/></g><path fill="#333" d="M133-28C103 26-5 8 13-77c13-62 24-115 90-117 29-1 46 15 56 35l19-102h32L160 0h-30zM45-64c-2 27 10 43 35 43 54-1 69-50 69-103 0-29-15-46-42-46-53-1-58 58-62 106" id="V"/><g id="d"><use transform="matrix(0.05,0,0,0.05,0,0)" xlink:href="#Q"/><use transform="matrix(0.05,0,0,0.05,3.95,0)" xlink:href="#V"/></g><path fill="#333" d="M67-158c22-48 132-52 116 29L158 0h-32l25-140c3-38-53-32-70-12C52-117 51-52 38 0H6l36-190h30" id="W"/><path fill="#333" d="M51-54c-9 22 5 41 31 30L79-1C43 14 10-4 19-52l22-115H19l5-23h22l19-43h21l-9 43h35l-4 23H73" id="X"/><g id="e"><use transform="matrix(0.05,0,0,0.05,0,0)" xlink:href="#Q"/><use transform="matrix(0.05,0,0,0.05,3.95,0)" xlink:href="#W"/><use transform="matrix(0.05,0,0,0.05,13.949999999999998,0)" xlink:href="#X"/></g><path fill="#333" d="M76-167L44 0H12l33-167H18l4-23h27c3-47 25-81 82-69l-4 24c-35-8-44 15-46 45h37l-5 23H76" id="Y"/><path fill="#333" d="M-28 44V31h207v13H-28" id="Z"/><path fill="#333" d="M165-48c-4 18 1 34 23 27l-3 20c-29 8-62 0-52-35h-2C116-14 99 4 63 4 30 4 8-16 8-49c0-68 71-67 138-67 10-26 0-56-31-54-26 1-42 9-47 31l-32-5c8-67 160-71 144 15-5 28-9 54-15 81zM42-50c3 52 80 24 89-6 7-12 7-24 11-38-47 1-103-4-100 44" id="aa"/><path fill="#333" d="M248-111c6-24 9-61-24-58-72 9-57 108-77 169h-31l26-142c3-37-50-30-64-10C52-115 50-51 37 0H6l36-190h30c-1 10-6 24-4 32 13-43 101-52 105 5 13-22 29-41 61-41 90 0 28 129 23 194h-31" id="ab"/><g id="f"><use transform="matrix(0.05,0,0,0.05,0,0)" xlink:href="#Y"/><use transform="matrix(0.05,0,0,0.05,5,0)" xlink:href="#Q"/><use transform="matrix(0.05,0,0,0.05,8.95,0)" xlink:href="#U"/><use transform="matrix(0.05,0,0,0.05,14.899999999999999,0)" xlink:href="#R"/><use transform="matrix(0.05,0,0,0.05,23.9,0)" xlink:href="#X"/><use transform="matrix(0.05,0,0,0.05,28.899999999999995,0)" xlink:href="#Z"/><use transform="matrix(0.05,0,0,0.05,38.9,0)" xlink:href="#W"/><use transform="matrix(0.05,0,0,0.05,48.9,0)" xlink:href="#aa"/><use transform="matrix(0.05,0,0,0.05,58.900000000000006,0)" xlink:href="#ab"/><use transform="matrix(0.05,0,0,0.05,73.85,0)" xlink:href="#O"/></g><path fill="#333" d="M103-194c29 0 47 14 56 36 2-11 5-23 8-32h30L160-5C157 61 82 97 21 62 9 55 4 45 1 30l28-7c7 42 83 31 92-3 4-16 9-38 13-55-13 20-29 36-62 36-40 0-60-25-60-64 0-71 23-131 91-131zm4 24c-53 0-58 54-61 104-2 27 10 44 36 44 49 0 65-50 67-102 1-29-15-46-42-46" id="ac"/><g id="g"><use transform="matrix(0.05,0,0,0.05,0,0)" xlink:href="#R"/><use transform="matrix(0.05,0,0,0.05,9,0)" xlink:href="#X"/><use transform="matrix(0.05,0,0,0.05,14,0)" xlink:href="#U"/><use transform="matrix(0.05,0,0,0.05,19.95,0)" xlink:href="#Q"/><use transform="matrix(0.05,0,0,0.05,23.9,0)" xlink:href="#W"/><use transform="matrix(0.05,0,0,0.05,33.9,0)" xlink:href="#ac"/></g><path fill="#333" d="M6 0l50-261h32L37 0H6" id="ad"/><g id="h"><use transform="matrix(0.05,0,0,0.05,0,0)" xlink:href="#ad"/><use transform="matrix(0.05,0,0,0.05,3.95,0)" xlink:href="#aa"/><use transform="matrix(0.05,0,0,0.05,13.949999999999998,0)" xlink:href="#R"/><use transform="matrix(0.05,0,0,0.05,22.95,0)" xlink:href="#X"/><use transform="matrix(0.05,0,0,0.05,27.950000000000003,0)" xlink:href="#Z"/><use transform="matrix(0.05,0,0,0.05,37.95,0)" xlink:href="#W"/><use transform="matrix(0.05,0,0,0.05,47.95,0)" xlink:href="#aa"/><use transform="matrix(0.05,0,0,0.05,57.95,0)" xlink:href="#ab"/><use transform="matrix(0.05,0,0,0.05,72.9,0)" xlink:href="#O"/></g><g id="i"><use transform="matrix(0.05,0,0,0.05,0,0)" xlink:href="#O"/><use transform="matrix(0.05,0,0,0.05,10,0)" xlink:href="#ab"/><use transform="matrix(0.05,0,0,0.05,24.950000000000003,0)" xlink:href="#aa"/><use transform="matrix(0.05,0,0,0.05,34.95,0)" xlink:href="#Q"/><use transform="matrix(0.05,0,0,0.05,38.900000000000006,0)" xlink:href="#ad"/></g><path fill="#333" d="M67-158c15-20 31-36 64-36 94 0 33 127 27 194h-32l25-140c3-38-53-32-70-12C52-117 51-51 37 0H6l51-261h31" id="ae"/><g id="j"><use transform="matrix(0.05,0,0,0.05,0,0)" xlink:href="#ae"/><use transform="matrix(0.05,0,0,0.05,10,0)" xlink:href="#O"/><use transform="matrix(0.05,0,0,0.05,20,0)" xlink:href="#Q"/><use transform="matrix(0.05,0,0,0.05,23.95,0)" xlink:href="#ac"/><use transform="matrix(0.05,0,0,0.05,33.95,0)" xlink:href="#ae"/><use transform="matrix(0.05,0,0,0.05,43.95,0)" xlink:href="#X"/></g><path fill="#333" d="M30-147c31-64 166-65 159 27C183-49 158 1 86 4 9 8 1-88 30-147zM88-20c53 0 68-48 68-100 0-31-11-51-44-50-52 1-68 46-68 97 0 32 13 53 44 53" id="af"/><g id="k"><use transform="matrix(0.05,0,0,0.05,0,0)" xlink:href="#Y"/><use transform="matrix(0.05,0,0,0.05,5,0)" xlink:href="#ad"/><use transform="matrix(0.05,0,0,0.05,8.95,0)" xlink:href="#af"/><use transform="matrix(0.05,0,0,0.05,18.95,0)" xlink:href="#aa"/><use transform="matrix(0.05,0,0,0.05,28.950000000000003,0)" xlink:href="#X"/></g><path fill="#333" d="M188 0h-37l-8-164L71 0H34L18-190h31l8 164 75-164h34l8 164 74-164h31" id="ag"/><g id="l"><use transform="matrix(0.05,0,0,0.05,0,0)" xlink:href="#ag"/><use transform="matrix(0.05,0,0,0.05,12.950000000000001,0)" xlink:href="#O"/><use transform="matrix(0.05,0,0,0.05,22.950000000000003,0)" xlink:href="#Q"/><use transform="matrix(0.05,0,0,0.05,26.900000000000002,0)" xlink:href="#ac"/><use transform="matrix(0.05,0,0,0.05,36.900000000000006,0)" xlink:href="#ae"/><use transform="matrix(0.05,0,0,0.05,46.900000000000006,0)" xlink:href="#X"/></g><path fill="#333" d="M68-162c25-46 127-43 121 31C183-60 169 1 98 4 69 5 53-11 43-31L36 0H5l52-261h31zm88 36c2-27-9-43-34-43-55 0-70 51-70 103 0 29 15 45 43 46 52 0 58-58 61-106" id="ah"/><path fill="#333" d="M198-190L69 30C53 58 25 83-20 72c4-11-1-27 19-22 33-1 43-29 59-52L20-190h32L79-34l84-156h35" id="ai"/><g id="m"><use transform="matrix(0.05,0,0,0.05,0,0)" xlink:href="#ah"/><use transform="matrix(0.05,0,0,0.05,10,0)" xlink:href="#Q"/><use transform="matrix(0.05,0,0,0.05,13.949999999999998,0)" xlink:href="#U"/><use transform="matrix(0.05,0,0,0.05,19.9,0)" xlink:href="#V"/><use transform="matrix(0.05,0,0,0.05,29.899999999999995,0)" xlink:href="#R"/><use transform="matrix(0.05,0,0,0.05,38.9,0)" xlink:href="#V"/><use transform="matrix(0.05,0,0,0.05,48.9,0)" xlink:href="#aa"/><use transform="matrix(0.05,0,0,0.05,58.900000000000006,0)" xlink:href="#ai"/></g><g id="n"><use transform="matrix(0.05,0,0,0.05,0,0)" xlink:href="#V"/><use transform="matrix(0.05,0,0,0.05,10,0)" xlink:href="#aa"/><use transform="matrix(0.05,0,0,0.05,20,0)" xlink:href="#X"/><use transform="matrix(0.05,0,0,0.05,25,0)" xlink:href="#O"/></g><path fill="#333" d="M44-68c0 29 11 47 38 47 30 0 42-19 51-41l28 9C148-21 126 4 82 4 31 4 10-29 12-85c3-77 74-140 146-93 12 8 15 23 18 40l-31 5c-1-22-13-36-36-36-52 0-65 49-65 101" id="aj"/><path fill="#333" d="M67-162c32-53 139-36 121 50C175-51 163 2 97 4 68 4 52-11 42-31 38 6 28 39 22 75H-9l50-265h29c-1 10 0 20-3 28zm89 36c0-26-10-43-35-43-54 0-67 50-69 103-1 29 14 45 42 46 53 0 62-58 62-106" id="ak"/><g id="o"><use transform="matrix(0.05,0,0,0.05,0,0)" xlink:href="#O"/><use transform="matrix(0.05,0,0,0.05,10,0)" xlink:href="#W"/><use transform="matrix(0.05,0,0,0.05,20,0)" xlink:href="#aj"/><use transform="matrix(0.05,0,0,0.05,29,0)" xlink:href="#U"/><use transform="matrix(0.05,0,0,0.05,34.95,0)" xlink:href="#ai"/><use transform="matrix(0.05,0,0,0.05,43.95,0)" xlink:href="#ak"/><use transform="matrix(0.05,0,0,0.05,53.95,0)" xlink:href="#Z"/><use transform="matrix(0.05,0,0,0.05,63.95,0)" xlink:href="#ak"/><use transform="matrix(0.05,0,0,0.05,73.95,0)" xlink:href="#aa"/><use transform="matrix(0.05,0,0,0.05,83.95,0)" xlink:href="#R"/><use transform="matrix(0.05,0,0,0.05,92.95,0)" xlink:href="#R"/><use transform="matrix(0.05,0,0,0.05,101.95,0)" xlink:href="#ag"/><use transform="matrix(0.05,0,0,0.05,114.9,0)" xlink:href="#af"/><use transform="matrix(0.05,0,0,0.05,124.9,0)" xlink:href="#U"/><use transform="matrix(0.05,0,0,0.05,130.85,0)" xlink:href="#V"/></g><path fill="#333" d="M151-220L108 0H75l42-220H32l6-28h203l-5 28h-85" id="al"/><g id="p"><use transform="matrix(0.05,0,0,0.05,0,0)" xlink:href="#al"/><use transform="matrix(0.05,0,0,0.05,9.600000000000001,0)" xlink:href="#ai"/><use transform="matrix(0.05,0,0,0.05,18.6,0)" xlink:href="#ak"/><use transform="matrix(0.05,0,0,0.05,28.6,0)" xlink:href="#O"/></g><path fill="#333" d="M14 0l8-38h34L48 0H14" id="am"/><g id="q"><use transform="matrix(0.05,0,0,0.05,0,0)" xlink:href="#am"/><use transform="matrix(0.05,0,0,0.05,5,0)" xlink:href="#am"/></g><g id="r"><use transform="matrix(0.05,0,0,0.05,0,0)" xlink:href="#am"/><use transform="matrix(0.05,0,0,0.05,5,0)" xlink:href="#am"/><use transform="matrix(0.05,0,0,0.05,10,0)" xlink:href="#am"/></g><g id="s"><use transform="matrix(0.05,0,0,0.05,0,0)" xlink:href="#aj"/><use transform="matrix(0.05,0,0,0.05,9,0)" xlink:href="#aa"/><use transform="matrix(0.05,0,0,0.05,19,0)" xlink:href="#ad"/><use transform="matrix(0.05,0,0,0.05,22.95,0)" xlink:href="#af"/><use transform="matrix(0.05,0,0,0.05,32.95,0)" xlink:href="#U"/><use transform="matrix(0.05,0,0,0.05,38.900000000000006,0)" xlink:href="#Q"/><use transform="matrix(0.05,0,0,0.05,42.85000000000001,0)" xlink:href="#O"/><use transform="matrix(0.05,0,0,0.05,52.85,0)" xlink:href="#R"/></g><g id="t"><use transform="matrix(0.05,0,0,0.05,0,0)" xlink:href="#aj"/><use transform="matrix(0.05,0,0,0.05,9,0)" xlink:href="#aa"/><use transform="matrix(0.05,0,0,0.05,19,0)" xlink:href="#ad"/><use transform="matrix(0.05,0,0,0.05,22.95,0)" xlink:href="#af"/><use transform="matrix(0.05,0,0,0.05,32.95,0)" xlink:href="#U"/><use transform="matrix(0.05,0,0,0.05,38.900000000000006,0)" xlink:href="#Q"/><use transform="matrix(0.05,0,0,0.05,42.85000000000001,0)" xlink:href="#O"/><use transform="matrix(0.05,0,0,0.05,52.85,0)" xlink:href="#R"/><use transform="matrix(0.05,0,0,0.05,61.85,0)" xlink:href="#Z"/><use transform="matrix(0.05,0,0,0.05,71.85000000000001,0)" xlink:href="#Q"/><use transform="matrix(0.05,0,0,0.05,75.80000000000001,0)" xlink:href="#W"/><use transform="matrix(0.05,0,0,0.05,85.80000000000001,0)" xlink:href="#ac"/><use transform="matrix(0.05,0,0,0.05,95.80000000000001,0)" xlink:href="#O"/><use transform="matrix(0.05,0,0,0.05,105.80000000000001,0)" xlink:href="#R"/><use transform="matrix(0.05,0,0,0.05,114.80000000000001,0)" xlink:href="#X"/><use transform="matrix(0.05,0,0,0.05,119.80000000000001,0)" xlink:href="#O"/><use transform="matrix(0.05,0,0,0.05,129.8,0)" xlink:href="#V"/></g><g id="u"><use transform="matrix(0.05,0,0,0.05,0,0)" xlink:href="#aj"/><use transform="matrix(0.05,0,0,0.05,9,0)" xlink:href="#aa"/><use transform="matrix(0.05,0,0,0.05,19,0)" xlink:href="#ad"/><use transform="matrix(0.05,0,0,0.05,22.95,0)" xlink:href="#af"/><use transform="matrix(0.05,0,0,0.05,32.95,0)" xlink:href="#U"/><use transform="matrix(0.05,0,0,0.05,38.900000000000006,0)" xlink:href="#Q"/><use transform="matrix(0.05,0,0,0.05,42.85000000000001,0)" xlink:href="#O"/><use transform="matrix(0.05,0,0,0.05,52.85,0)" xlink:href="#R"/><use transform="matrix(0.05,0,0,0.05,61.85,0)" xlink:href="#Z"/><use transform="matrix(0.05,0,0,0.05,71.85000000000001,0)" xlink:href="#ah"/><use transform="matrix(0.05,0,0,0.05,81.85000000000001,0)" xlink:href="#T"/><use transform="matrix(0.05,0,0,0.05,91.85000000000001,0)" xlink:href="#U"/><use transform="matrix(0.05,0,0,0.05,97.80000000000001,0)" xlink:href="#W"/><use transform="matrix(0.05,0,0,0.05,107.80000000000001,0)" xlink:href="#O"/><use transform="matrix(0.05,0,0,0.05,117.80000000000001,0)" xlink:href="#V"/></g><g id="v"><use transform="matrix(0.05,0,0,0.05,0,0)" xlink:href="#aj"/><use transform="matrix(0.05,0,0,0.05,9,0)" xlink:href="#af"/><use transform="matrix(0.05,0,0,0.05,19,0)" xlink:href="#ab"/><use transform="matrix(0.05,0,0,0.05,33.95,0)" xlink:href="#ab"/><use transform="matrix(0.05,0,0,0.05,48.900000000000006,0)" xlink:href="#O"/><use transform="matrix(0.05,0,0,0.05,58.900000000000006,0)" xlink:href="#W"/><use transform="matrix(0.05,0,0,0.05,68.9,0)" xlink:href="#X"/></g><path fill="#333" d="M124 0L87-78 21 0h-35l86-98-46-92h33l34 74 61-74h37l-83 92 50 98h-34" id="an"/><g id="w"><use transform="matrix(0.05,0,0,0.05,0,0)" xlink:href="#X"/><use transform="matrix(0.05,0,0,0.05,5,0)" xlink:href="#O"/><use transform="matrix(0.05,0,0,0.05,15,0)" xlink:href="#an"/><use transform="matrix(0.05,0,0,0.05,24,0)" xlink:href="#X"/></g><g id="x"><use transform="matrix(0.05,0,0,0.05,0,0)" xlink:href="#V"/><use transform="matrix(0.05,0,0,0.05,10,0)" xlink:href="#aa"/><use transform="matrix(0.05,0,0,0.05,20,0)" xlink:href="#X"/><use transform="matrix(0.05,0,0,0.05,25,0)" xlink:href="#O"/><use transform="matrix(0.05,0,0,0.05,35,0)" xlink:href="#X"/><use transform="matrix(0.05,0,0,0.05,40,0)" xlink:href="#Q"/><use transform="matrix(0.05,0,0,0.05,43.95,0)" xlink:href="#ab"/><use transform="matrix(0.05,0,0,0.05,58.900000000000006,0)" xlink:href="#O"/></g><g id="y"><use transform="matrix(0.05,0,0,0.05,0,0)" xlink:href="#T"/><use transform="matrix(0.05,0,0,0.05,10,0)" xlink:href="#R"/><use transform="matrix(0.05,0,0,0.05,19,0)" xlink:href="#O"/><use transform="matrix(0.05,0,0,0.05,29,0)" xlink:href="#U"/><use transform="matrix(0.05,0,0,0.05,34.95,0)" xlink:href="#Z"/><use transform="matrix(0.05,0,0,0.05,44.95,0)" xlink:href="#Q"/><use transform="matrix(0.05,0,0,0.05,48.900000000000006,0)" xlink:href="#V"/></g><path fill="#333" d="M127 0L80-88 50-66 37 0H6l51-261h31L57-100l99-90h39l-93 82L161 0h-34" id="ao"/><g id="z"><use transform="matrix(0.05,0,0,0.05,0,0)" xlink:href="#Y"/><use transform="matrix(0.05,0,0,0.05,5,0)" xlink:href="#ao"/></g><path fill="#333" d="M238-179c0 84-86 86-175 82L45 0H11l48-248c82 0 179-12 179 69zm-34 1c0-53-64-42-116-43l-19 98c63 0 135 9 135-55" id="ap"/><g id="A"><use transform="matrix(0.05,0,0,0.05,0,0)" xlink:href="#ap"/><use transform="matrix(0.05,0,0,0.05,12,0)" xlink:href="#af"/><use transform="matrix(0.05,0,0,0.05,22,0)" xlink:href="#ad"/><use transform="matrix(0.05,0,0,0.05,25.950000000000003,0)" xlink:href="#ai"/><use transform="matrix(0.05,0,0,0.05,34.95,0)" xlink:href="#ab"/><use transform="matrix(0.05,0,0,0.05,49.900000000000006,0)" xlink:href="#af"/><use transform="matrix(0.05,0,0,0.05,59.900000000000006,0)" xlink:href="#U"/><use transform="matrix(0.05,0,0,0.05,65.85000000000001,0)" xlink:href="#ak"/><use transform="matrix(0.05,0,0,0.05,75.85000000000001,0)" xlink:href="#ae"/><use transform="matrix(0.05,0,0,0.05,85.85000000000001,0)" xlink:href="#Q"/><use transform="matrix(0.05,0,0,0.05,89.80000000000001,0)" xlink:href="#aj"/></g><path fill="#333" d="M44-154l7-36h35l-8 36H44zM14 0l7-36h35L49 0H14" id="aq"/><g id="B"><use transform="matrix(0.05,0,0,0.05,0,0)" xlink:href="#X"/><use transform="matrix(0.05,0,0,0.05,5,0)" xlink:href="#aa"/><use transform="matrix(0.05,0,0,0.05,15,0)" xlink:href="#ah"/><use transform="matrix(0.05,0,0,0.05,25,0)" xlink:href="#ad"/><use transform="matrix(0.05,0,0,0.05,28.950000000000003,0)" xlink:href="#O"/><use transform="matrix(0.05,0,0,0.05,38.95,0)" xlink:href="#aq"/></g><g id="C"><use transform="matrix(0.05,0,0,0.05,0,0)" xlink:href="#aa"/><use transform="matrix(0.05,0,0,0.05,10,0)" xlink:href="#aj"/><use transform="matrix(0.05,0,0,0.05,19,0)" xlink:href="#X"/><use transform="matrix(0.05,0,0,0.05,24,0)" xlink:href="#Q"/><use transform="matrix(0.05,0,0,0.05,27.950000000000003,0)" xlink:href="#P"/><use transform="matrix(0.05,0,0,0.05,36.95,0)" xlink:href="#O"/><use transform="matrix(0.05,0,0,0.05,46.95,0)" xlink:href="#Z"/><use transform="matrix(0.05,0,0,0.05,56.95,0)" xlink:href="#R"/><use transform="matrix(0.05,0,0,0.05,65.95,0)" xlink:href="#X"/><use transform="matrix(0.05,0,0,0.05,70.95,0)" xlink:href="#af"/><use transform="matrix(0.05,0,0,0.05,80.95,0)" xlink:href="#U"/><use transform="matrix(0.05,0,0,0.05,86.9,0)" xlink:href="#aa"/><use transform="matrix(0.05,0,0,0.05,96.9,0)" xlink:href="#ac"/><use transform="matrix(0.05,0,0,0.05,106.9,0)" xlink:href="#O"/><use transform="matrix(0.05,0,0,0.05,116.9,0)" xlink:href="#Z"/><use transform="matrix(0.05,0,0,0.05,126.9,0)" xlink:href="#aa"/><use transform="matrix(0.05,0,0,0.05,136.9,0)" xlink:href="#X"/><use transform="matrix(0.05,0,0,0.05,141.9,0)" xlink:href="#X"/><use transform="matrix(0.05,0,0,0.05,146.9,0)" xlink:href="#aa"/><use transform="matrix(0.05,0,0,0.05,156.9,0)" xlink:href="#aj"/><use transform="matrix(0.05,0,0,0.05,165.9,0)" xlink:href="#ae"/><use transform="matrix(0.05,0,0,0.05,175.9,0)" xlink:href="#ab"/><use transform="matrix(0.05,0,0,0.05,190.85,0)" xlink:href="#O"/><use transform="matrix(0.05,0,0,0.05,200.85,0)" xlink:href="#W"/><use transform="matrix(0.05,0,0,0.05,210.85000000000002,0)" xlink:href="#X"/><use transform="matrix(0.05,0,0,0.05,215.85000000000002,0)" xlink:href="#R"/></g><g id="D"><use transform="matrix(0.05,0,0,0.05,0,0)" xlink:href="#W"/><use transform="matrix(0.05,0,0,0.05,10,0)" xlink:href="#aa"/><use transform="matrix(0.05,0,0,0.05,20,0)" xlink:href="#ab"/><use transform="matrix(0.05,0,0,0.05,34.95,0)" xlink:href="#O"/></g><g id="E"><use transform="matrix(0.05,0,0,0.05,0,0)" xlink:href="#U"/><use transform="matrix(0.05,0,0,0.05,5.95,0)" xlink:href="#O"/><use transform="matrix(0.05,0,0,0.05,15.949999999999998,0)" xlink:href="#aj"/><use transform="matrix(0.05,0,0,0.05,24.95,0)" xlink:href="#af"/><use transform="matrix(0.05,0,0,0.05,34.95,0)" xlink:href="#U"/><use transform="matrix(0.05,0,0,0.05,40.900000000000006,0)" xlink:href="#V"/><use transform="matrix(0.05,0,0,0.05,50.900000000000006,0)" xlink:href="#Z"/><use transform="matrix(0.05,0,0,0.05,60.900000000000006,0)" xlink:href="#X"/><use transform="matrix(0.05,0,0,0.05,65.9,0)" xlink:href="#ai"/><use transform="matrix(0.05,0,0,0.05,74.9,0)" xlink:href="#ak"/><use transform="matrix(0.05,0,0,0.05,84.9,0)" xlink:href="#O"/></g><g id="F"><use transform="matrix(0.05,0,0,0.05,0,0)" xlink:href="#U"/><use transform="matrix(0.05,0,0,0.05,5.95,0)" xlink:href="#O"/><use transform="matrix(0.05,0,0,0.05,15.949999999999998,0)" xlink:href="#aj"/><use transform="matrix(0.05,0,0,0.05,24.95,0)" xlink:href="#af"/><use transform="matrix(0.05,0,0,0.05,34.95,0)" xlink:href="#U"/><use transform="matrix(0.05,0,0,0.05,40.900000000000006,0)" xlink:href="#V"/><use transform="matrix(0.05,0,0,0.05,50.900000000000006,0)" xlink:href="#Z"/><use transform="matrix(0.05,0,0,0.05,60.900000000000006,0)" xlink:href="#Q"/><use transform="matrix(0.05,0,0,0.05,64.85000000000001,0)" xlink:href="#V"/></g><g id="G"><use transform="matrix(0.05,0,0,0.05,0,0)" xlink:href="#ah"/><use transform="matrix(0.05,0,0,0.05,10,0)" xlink:href="#ad"/><use transform="matrix(0.05,0,0,0.05,13.949999999999998,0)" xlink:href="#af"/><use transform="matrix(0.05,0,0,0.05,23.95,0)" xlink:href="#ah"/><use transform="matrix(0.05,0,0,0.05,33.95,0)" xlink:href="#Z"/><use transform="matrix(0.05,0,0,0.05,43.95,0)" xlink:href="#Q"/><use transform="matrix(0.05,0,0,0.05,47.900000000000006,0)" xlink:href="#V"/></g><g id="H"><use transform="matrix(0.05,0,0,0.05,0,0)" xlink:href="#aa"/><use transform="matrix(0.05,0,0,0.05,10,0)" xlink:href="#aj"/><use transform="matrix(0.05,0,0,0.05,19,0)" xlink:href="#X"/><use transform="matrix(0.05,0,0,0.05,24,0)" xlink:href="#Q"/><use transform="matrix(0.05,0,0,0.05,27.950000000000003,0)" xlink:href="#P"/><use transform="matrix(0.05,0,0,0.05,36.95,0)" xlink:href="#O"/><use transform="matrix(0.05,0,0,0.05,46.95,0)" xlink:href="#Z"/><use transform="matrix(0.05,0,0,0.05,56.95,0)" xlink:href="#R"/><use transform="matrix(0.05,0,0,0.05,65.95,0)" xlink:href="#X"/><use transform="matrix(0.05,0,0,0.05,70.95,0)" xlink:href="#af"/><use transform="matrix(0.05,0,0,0.05,80.95,0)" xlink:href="#U"/><use transform="matrix(0.05,0,0,0.05,86.9,0)" xlink:href="#aa"/><use transform="matrix(0.05,0,0,0.05,96.9,0)" xlink:href="#ac"/><use transform="matrix(0.05,0,0,0.05,106.9,0)" xlink:href="#O"/><use transform="matrix(0.05,0,0,0.05,116.9,0)" xlink:href="#Z"/><use transform="matrix(0.05,0,0,0.05,126.9,0)" xlink:href="#ah"/><use transform="matrix(0.05,0,0,0.05,136.9,0)" xlink:href="#ad"/><use transform="matrix(0.05,0,0,0.05,140.85,0)" xlink:href="#af"/><use transform="matrix(0.05,0,0,0.05,150.85,0)" xlink:href="#ah"/><use transform="matrix(0.05,0,0,0.05,160.85,0)" xlink:href="#R"/></g><g id="I"><use transform="matrix(0.05,0,0,0.05,0,0)" xlink:href="#ao"/><use transform="matrix(0.05,0,0,0.05,9,0)" xlink:href="#O"/><use transform="matrix(0.05,0,0,0.05,19,0)" xlink:href="#ai"/></g><g id="J"><use transform="matrix(0.05,0,0,0.05,0,0)" xlink:href="#Y"/><use transform="matrix(0.05,0,0,0.05,5,0)" xlink:href="#Q"/><use transform="matrix(0.05,0,0,0.05,8.95,0)" xlink:href="#ad"/><use transform="matrix(0.05,0,0,0.05,12.899999999999999,0)" xlink:href="#O"/><use transform="matrix(0.05,0,0,0.05,22.9,0)" xlink:href="#W"/><use transform="matrix(0.05,0,0,0.05,32.9,0)" xlink:href="#aa"/><use transform="matrix(0.05,0,0,0.05,42.9,0)" xlink:href="#ab"/><use transform="matrix(0.05,0,0,0.05,57.85,0)" xlink:href="#O"/></g><g id="K"><use transform="matrix(0.05,0,0,0.05,0,0)" xlink:href="#aj"/><use transform="matrix(0.05,0,0,0.05,9,0)" xlink:href="#af"/><use transform="matrix(0.05,0,0,0.05,19,0)" xlink:href="#W"/><use transform="matrix(0.05,0,0,0.05,29,0)" xlink:href="#X"/><use transform="matrix(0.05,0,0,0.05,34,0)" xlink:href="#O"/><use transform="matrix(0.05,0,0,0.05,44,0)" xlink:href="#W"/><use transform="matrix(0.05,0,0,0.05,54,0)" xlink:href="#X"/><use transform="matrix(0.05,0,0,0.05,59,0)" xlink:href="#Z"/><use transform="matrix(0.05,0,0,0.05,69,0)" xlink:href="#X"/><use transform="matrix(0.05,0,0,0.05,74,0)" xlink:href="#ai"/><use transform="matrix(0.05,0,0,0.05,83,0)" xlink:href="#ak"/><use transform="matrix(0.05,0,0,0.05,93,0)" xlink:href="#O"/></g><path fill="#333" d="M-8 0l5-24 140-142H31l5-24h145l-5 24L36-24h119l-5 24H-8" id="ar"/><g id="L"><use transform="matrix(0.05,0,0,0.05,0,0)" xlink:href="#ah"/><use transform="matrix(0.05,0,0,0.05,10,0)" xlink:href="#ai"/><use transform="matrix(0.05,0,0,0.05,19,0)" xlink:href="#X"/><use transform="matrix(0.05,0,0,0.05,24,0)" xlink:href="#O"/><use transform="matrix(0.05,0,0,0.05,34,0)" xlink:href="#Z"/><use transform="matrix(0.05,0,0,0.05,44,0)" xlink:href="#R"/><use transform="matrix(0.05,0,0,0.05,53,0)" xlink:href="#Q"/><use transform="matrix(0.05,0,0,0.05,56.95,0)" xlink:href="#ar"/><use transform="matrix(0.05,0,0,0.05,65.95,0)" xlink:href="#O"/></g><g id="M"><use transform="matrix(0.05,0,0,0.05,0,0)" xlink:href="#am"/><use transform="matrix(0.05,0,0,0.05,5,0)" xlink:href="#am"/><use transform="matrix(0.05,0,0,0.05,10,0)" xlink:href="#am"/><use transform="matrix(0.05,0,0,0.05,15,0)" xlink:href="#am"/><use transform="matrix(0.05,0,0,0.05,20,0)" xlink:href="#am"/></g></defs></g></svg>